<svg xmlns="http://www.w3.org/2000/svg" viewBox="0 0 367.80 244.00" width="367.80" height="244.00">
  <g fill="#1D4ED8" transform="translate(0,194.00)">
    <path transform="translate(0.000,0.000) scale(0.20000,-0.20000)" d="M50 0V720H204V0ZM122 0V118H586V0ZM122 310V426H551V310ZM122 602V720H574V602Z"/><path transform="translate(123.800,0.000) scale(0.20000,-0.20000)" d="M60 0V510H210V0ZM55 578V740H215V578Z"/><path transform="translate(177.800,0.000) scale(0.20000,-0.20000)" d="M60 0V510H207V390H210V0ZM210 266 197 387Q215 452 256.0 486.0Q297 520 358 520Q377 520 386 516V376Q381 378 372.0 378.5Q363 379 350 379Q278 379 244.0 353.5Q210 328 210 266Z"/><path transform="translate(253.600,0.000) scale(0.20000,-0.20000)" d="M381 0Q375 22 372.5 47.0Q370 72 370 105H366V346Q366 377 345.5 394.5Q325 412 285 412Q247 412 224.5 399.0Q202 386 195 361H52Q62 430 123.0 475.0Q184 520 290 520Q400 520 458.0 471.0Q516 422 516 330V105Q516 80 519.5 54.5Q523 29 531 0ZM203 -10Q127 -10 82.0 28.5Q37 67 37 131Q37 202 90.5 245.5Q144 289 240 302L389 323V236L265 217Q225 211 206.0 195.0Q187 179 187 151Q187 126 205.0 113.0Q223 100 253 100Q300 100 333.0 125.5Q366 151 366 185L380 105Q358 48 313.0 19.0Q268 -10 203 -10Z"/>
  </g>
</svg>